<?xml version="1.0" encoding="UTF-8" standalone="no"?>
<svg width="800px" height="450px" viewBox="0 0 800 450" version="1.1" xmlns="http://www.w3.org/2000/svg" xmlns:xlink="http://www.w3.org/1999/xlink">
    <rect width="800" height="450" fill="#1e293b"/>
    <rect x="200" y="100" width="400" height="250" rx="15" fill="#334155"/>
    <path d="M350,180 C350,160 370,140 400,140 C430,140 450,160 450,180 C450,200 430,220 400,220 C370,220 350,200 350,180 Z" fill="#c2410c" opacity="0.9"/>
    <path d="M300,240 C300,220 340,200 400,200 C460,200 500,220 500,240 C500,260 460,280 400,280 C340,280 300,260 300,240 Z" fill="#c2410c" opacity="0.7"/>
    <text x="400" y="185" font-family="Arial" font-size="24" font-weight="bold" text-anchor="middle" fill="#ffffff">OCI 2024</text>
    <text x="400" y="300" font-family="Arial" font-size="24" text-anchor="middle" fill="#e2e8f0">Foundations Associate</text>
</svg>
